<?xml version="1.0" encoding="UTF-8" standalone="no"?>
<svg
   xmlns:dc="http://purl.org/dc/elements/1.1/"
   xmlns:cc="http://creativecommons.org/ns#"
   xmlns:rdf="http://www.w3.org/1999/02/22-rdf-syntax-ns#"
   xmlns:svg="http://www.w3.org/2000/svg"
   xmlns="http://www.w3.org/2000/svg"
   xmlns:sodipodi="http://sodipodi.sourceforge.net/DTD/sodipodi-0.dtd"
   xmlns:inkscape="http://www.inkscape.org/namespaces/inkscape"
   version="1.1"
   id="svg5170"
   viewBox="0 0 562.5 281.25"
   height="300"
   width="600"
   sodipodi:docname="vidello-to-daylo-logo-and-text.svg"
   inkscape:version="0.92.2 5c3e80d, 2017-08-06">
  <sodipodi:namedview
     pagecolor="#ffffff"
     bordercolor="#666666"
     borderopacity="1"
     objecttolerance="10"
     gridtolerance="10"
     guidetolerance="10"
     inkscape:pageopacity="0"
     inkscape:pageshadow="2"
     inkscape:window-width="2324"
     inkscape:window-height="1440"
     id="namedview9"
     showgrid="false"
     inkscape:zoom="0.5"
     inkscape:cx="136.75799"
     inkscape:cy="119.00437"
     inkscape:window-x="38"
     inkscape:window-y="0"
     inkscape:window-maximized="0"
     inkscape:current-layer="layer1"
     units="px" />
  <defs
     id="defs5172" />
  <metadata
     id="metadata5175">
    <rdf:RDF>
      <cc:Work
         rdf:about="">
        <dc:format>image/svg+xml</dc:format>
        <dc:type
           rdf:resource="http://purl.org/dc/dcmitype/StillImage" />
        <dc:title></dc:title>
      </cc:Work>
    </rdf:RDF>
  </metadata>
  <g
     transform="translate(1494.8169,844.0975)"
     id="layer1">
    <path
       id="path4564"
       d="m -1432.7303,-777.59916 h 82.4964 c 16.9716,0 30.7212,13.74937 30.7212,30.72126 v 82.49637 c 0,16.9719 -13.7496,30.7213 -30.7212,30.7213 h -82.4964 c -16.9719,0 -30.7213,-13.7494 -30.7213,-30.7213 v -82.49637 c 0,-16.97189 13.7494,-30.72126 30.7213,-30.72126 z"
       class="fil10"
       style="color:#000000;clip-rule:nonzero;display:inline;overflow:visible;visibility:visible;opacity:1;isolation:auto;mix-blend-mode:normal;color-interpolation:sRGB;color-interpolation-filters:linearRGB;solid-color:#000000;solid-opacity:1;fill:#ff6d00;fill-opacity:1;fill-rule:nonzero;stroke-width:0.21483421;stroke-linecap:butt;stroke-linejoin:miter;stroke-miterlimit:4;stroke-dasharray:none;stroke-dashoffset:0;stroke-opacity:1;color-rendering:auto;image-rendering:auto;shape-rendering:auto;text-rendering:auto;enable-background:accumulate"
       inkscape:connector-curvature="0" />
    <path
       id="path4566"
       d="m -1401.3646,-746.66303 c 15.468,0 28.7878,9.23784 34.8033,22.55757 l 12.6751,-12.67521 0.4297,-0.21483 c 4.5115,-4.29669 9.8823,-2.14833 9.8823,3.43734 0,4.72636 0.215,-0.42967 0,0 v 25.13559 25.13562 c 0.215,0.42967 0,-4.72636 0,0 0,5.5857 -5.3708,7.73403 -9.8823,3.43734 l -0.4297,-0.42967 -12.6751,-12.46036 c -6.0155,13.31972 -19.3353,22.34275 -34.8033,22.34275 -4.2967,0 -8.3785,-0.64451 -12.4602,-1.93351 l -15.0386,13.96422 0.215,-23.63174 c -6.66,-6.87471 -10.7419,-16.1126 -10.7419,-26.42465 0,-21.05374 16.9722,-38.24046 38.0257,-38.24046 z"
       class="fil3"
       style="color:#000000;clip-rule:nonzero;display:inline;overflow:visible;visibility:visible;opacity:1;isolation:auto;mix-blend-mode:normal;color-interpolation:sRGB;color-interpolation-filters:linearRGB;solid-color:#000000;solid-opacity:1;fill:#ffffff;fill-opacity:1;fill-rule:nonzero;stroke-width:0.21483421;stroke-linecap:butt;stroke-linejoin:miter;stroke-miterlimit:4;stroke-dasharray:none;stroke-dashoffset:0;stroke-opacity:1;color-rendering:auto;image-rendering:auto;shape-rendering:auto;text-rendering:auto;enable-background:accumulate"
       inkscape:connector-curvature="0" />
    <text
       xml:space="preserve"
       style="font-style:normal;font-weight:normal;font-size:77.76000214px;line-height:125%;font-family:sans-serif;text-decoration: line-through;text-decoration-line: line-through;letter-spacing:0px;word-spacing:0px;fill:#cccccc;fill-opacity:1;stroke:none;stroke-width:1.94400001px;stroke-linecap:butt;stroke-linejoin:miter;stroke-opacity:1"
       x="-1279.032"
       y="-731.16028"
       id="text840"><tspan
         sodipodi:role="line"
         id="tspan838"
         x="-1279.032"
         y="-731.16028"
         style="font-style:normal;font-variant:normal;font-weight:normal;font-stretch:normal;font-size:124.41600037px;font-family:Bariol;-inkscape-font-specification:'Bariol, Normal';font-variant-ligatures:normal;font-variant-caps:normal;font-variant-numeric:normal;font-feature-settings:normal;text-align:start;writing-mode:lr-tb;text-anchor:start;fill:#cccccc;stroke-width:1.94400001px">vidello</tspan></text>
    <path
       style="color:#000000;clip-rule:nonzero;display:inline;overflow:visible;visibility:visible;opacity:0;isolation:auto;mix-blend-mode:normal;color-interpolation:sRGB;color-interpolation-filters:linearRGB;solid-color:#000000;solid-opacity:1;fill:#000000;fill-opacity:1;fill-rule:nonzero;stroke:#ffffff;stroke-width:0.05832;stroke-linecap:butt;stroke-linejoin:miter;stroke-miterlimit:4;stroke-dasharray:none;stroke-dashoffset:0;stroke-opacity:1;color-rendering:auto;image-rendering:auto;shape-rendering:auto;text-rendering:auto;enable-background:accumulate"
       id="path1115"
       d="m -1272.9274,-689.81632 c 3.4776,0.0926 6.9567,0.11688 10.4354,0.14723 8.5801,-0.0792 17.1572,-0.39863 25.7179,-0.97686 12.7681,-1.25364 25.5709,-2.08972 38.3207,-3.52439 13.2183,-1.44985 26.397,-3.22688 39.5756,-4.99588 12.3485,-1.97761 24.6342,-4.3672 36.831,-7.12989 11.2994,-2.89867 22.5808,-5.85391 33.9521,-8.46211 7.9945,-1.98071 15.9867,-3.99268 24.0237,-5.79574 0.9339,-0.20844 1.8693,-0.40974 2.8014,-0.62534 1.4157,-0.32757 3.0995,-0.76386 4.5339,-1.07356 1.7137,-0.36997 3.4415,-0.61705 5.153,-0.99613 2.4823,-0.40354 4.896,-1.02131 7.4091,-1.20943 2.4326,-0.46392 4.9101,-0.58679 7.3502,-1.00736 4.0505,-0.7298 8.0878,-1.53711 12.1102,-2.40999 2.1091,-0.43594 4.2091,-0.90741 6.3111,-1.36642 1.6229,-0.53346 3.3076,-0.93872 4.9777,-1.31672 3.0494,-0.8869 6.1632,-1.58743 9.2837,-2.19113 2.5176,-0.6378 5.0465,-1.13634 7.6291,-1.42062 0.3276,-0.0232 0.8542,-0.0245 1.173,-0.17357 0.1268,-0.059 0.199,-0.19907 0.3198,-0.26923 0.2994,-0.17399 0.7136,-0.1607 1.0446,-0.17668 0.279,-0.37171 0.6144,-0.32034 0.9872,-0.46081 0.1537,-0.0577 0.2727,-0.18248 0.4222,-0.24733 0.9795,-0.4236 0.028,0.18433 0.9381,-0.46574 0.2012,-0.0553 0.4119,-0.0862 0.6055,-0.16606 0.2052,-0.0854 0.3767,-0.24436 0.584,-0.3267 0.789,-0.31326 1.7351,-0.45151 2.5757,-0.53712 0.5022,-0.10512 0.8167,-0.40423 1.3066,-0.53442 0,0 -6.6634,5.19583 -6.6634,5.19583 v 0 c -0.4421,0.20031 -0.8891,0.34308 -1.3776,0.38673 -1.2537,0.25402 -2.4563,0.6577 -3.5857,1.26932 -0.8416,0.35162 -1.6748,0.76904 -2.5613,0.97037 -0.8601,0.24891 -1.5246,0.60201 -2.4949,0.53033 -2.5111,0.24757 -4.9565,0.81312 -7.4167,1.35829 -3.1475,0.65379 -6.2841,1.38587 -9.3672,2.29747 -1.6876,0.44137 -3.3766,0.87587 -5.0532,1.35401 -2.0302,0.46433 -4.0954,0.75819 -6.1282,1.21335 -4.0541,0.81776 -8.1036,1.65678 -12.1701,2.41028 -2.4918,0.38736 -4.9995,0.68006 -7.4951,1.0374 -2.4438,0.24334 -4.8262,0.8237 -7.2491,1.21239 -4.0808,0.79965 -8.1725,1.53699 -12.2206,2.50374 -7.9122,1.72309 -15.7837,3.63525 -23.6577,5.52379 -11.3205,2.57236 -22.5473,5.51099 -33.8032,8.34662 -12.2004,2.74616 -24.4873,5.14791 -36.8463,7.06167 -13.1345,1.77283 -26.281,3.46474 -39.4582,4.88889 -12.8663,1.4419 -25.7755,2.43642 -38.6567,3.73532 -8.7095,0.63209 -17.4349,1.02258 -26.1648,1.23743 -3.614,0.0308 -7.2282,0.0563 -10.841,0.14723 0,0 6.8385,-4.96836 6.8385,-4.96836 z"
       inkscape:connector-curvature="0" />
    <path
       style="color:#000000;clip-rule:nonzero;display:inline;overflow:visible;visibility:visible;opacity:0;isolation:auto;mix-blend-mode:normal;color-interpolation:sRGB;color-interpolation-filters:linearRGB;solid-color:#000000;solid-opacity:1;fill:#000000;fill-opacity:1;fill-rule:nonzero;stroke:#ffffff;stroke-width:0.05832;stroke-linecap:butt;stroke-linejoin:miter;stroke-miterlimit:4;stroke-dasharray:none;stroke-dashoffset:0;stroke-opacity:1;color-rendering:auto;image-rendering:auto;shape-rendering:auto;text-rendering:auto;enable-background:accumulate"
       id="path1117"
       d="m -980.5844,-738.16962 c -0.9005,0.54148 -1.6582,1.27975 -2.5091,1.89414 -2.5389,2.19295 0.02,0.0222 -7.9522,4.62326 -2.276,1.31456 4.5645,-2.60826 6.8537,-3.89989 0.1128,-0.0634 -0.2099,0.15017 -0.3218,0.21441 -8.7497,5.03856 -5.0783,2.81532 -8.0894,4.64302 -0.31,0.19804 -0.6882,0.26768 -1.0048,0.4504 -0.085,0.0491 -0.3185,0.22921 -0.2336,0.17998 7.0493,-4.07628 8.5841,-6.33321 6.874,-3.89032 -15.4478,8.61388 -4.8488,2.7195 -0.4144,0.18662 0.043,-0.0245 -0.102,0.007 -0.1452,0.0304 -2.4931,1.446 -5.1182,2.69189 -7.4551,4.37807 -2.1725,1.56738 8.5919,-6.11979 6.9828,-3.97805 -2.5317,1.43656 -5.0603,2.87932 -7.596,4.30963 -0.1625,0.0916 -0.6657,0.33685 -0.5041,0.24336 2.3579,-1.36421 9.3779,-5.54396 7.0818,-4.07775 -6.9515,4.43966 -4.6267,4.64272 -7.7706,4.28353 -0.1104,-0.0821 -0.749,0.45469 -0.61,0.37365 2.3618,-1.37504 9.6408,-5.08602 7.0768,-4.14001 -4.5602,1.68251 -5.5085,2.5362 -7.8544,4.56833 -0.1908,0.0187 -0.3888,10e-4 -0.5743,0.0538 -0.2073,0.0569 -0.3812,0.20197 -0.5861,0.26512 -0.2449,0.0755 -0.5048,0.09 -0.7545,0.14791 -1.2461,0.28947 -2.4901,0.60428 -3.7315,0.91447 -4.82,1.10531 -9.6868,2.03149 -14.4544,3.34966 -5.0371,1.28631 -10.063,2.61336 -15.107,3.8719 -4.9911,1.4137 -10.1055,2.35773 -15.1892,3.37738 -6.8734,1.29817 -13.86,1.88897 -20.8273,2.42263 -10.2036,0.88081 -20.4239,1.5415 -30.6357,2.32056 -10.5562,0.97579 -21.1224,1.8288 -31.687,2.71086 -11.0102,1.05607 -22.0272,2.0169 -33.0511,2.91929 -10.3175,0.79159 -20.6207,1.72008 -30.9207,2.70918 -6.098,0.95968 -12.3096,1.17804 -18.3855,2.26642 -2.8477,0.29707 -5.6597,0.87285 -8.4967,1.22798 -0.3672,0.0242 -0.7379,0.0187 -1.102,0.0727 -0.3204,0.0476 -0.6254,0.169 -0.9433,0.23141 -1.0695,0.21041 -2.0646,0.18455 -3.0514,0.68886 -0.836,0.20975 -1.6877,0.29354 -2.5441,0.32504 0.2514,-0.0746 -0.7754,0.57501 -0.6605,0.50856 2.3649,-1.36499 9.6774,-4.95933 7.078,-4.12353 -2.743,0.8819 -5.0121,2.84338 -7.518,4.26513 -0.5255,-0.0322 -1.0489,-0.0768 -1.5754,-0.0916 0.1866,-0.40015 -0.7229,0.23177 -0.5559,0.13896 2.3733,-1.32002 9.2821,-5.60873 7.1088,-3.98035 -2.8463,2.13245 -5.0532,4.20989 -8.2181,4.37824 0.144,-0.26446 -0.7834,0.26151 -0.6024,0.15966 2.3337,-1.31397 9.1469,-5.54165 7.0104,-3.92646 -2.3001,1.73881 -4.9854,2.89934 -7.5054,4.30059 -0.8175,0.45451 0.152,-0.38381 -0.4936,0.22162 -3.0576,1.38242 8.8971,-5.15239 6.6739,-3.86233 -3.7467,2.17414 -5.0535,4.42548 -8.3626,4.3111 -0.6354,0.31317 -1.2837,0.41865 -1.8969,0.7944 -0.9625,0.30034 -1.9461,0.52022 -2.9221,0.76832 -1.5072,0.45417 -3.0961,0.42415 -4.6362,0.67713 -1.8575,0.54427 -3.7781,0.73751 -5.6824,1.03342 -1.4574,0.0818 -2.8362,0.53843 -4.2652,0.77299 -2.2583,0.37074 0.064,-0.1044 -2.0226,0.34698 -1.8954,0.57378 -3.8778,0.5312 -5.81,0.92009 -1.8489,0.0734 -3.623,0.61959 -5.4577,0.78336 -1.2944,-0.008 -2.5403,0.33152 -3.8147,0.50276 -0.745,0.12874 -1.4973,0.16795 -2.2515,0.18558 0,0 6.8427,-5.0079 6.8427,-5.0079 v 0 c 0.719,-0.0336 1.4328,-0.12341 2.1449,-0.22454 1.2587,-0.20363 2.5114,-0.40149 3.7883,-0.45101 1.7972,-0.2613 3.579,-0.61188 5.3878,-0.7983 1.9395,-0.32076 3.9178,-0.38728 5.8177,-0.93774 2.0983,-0.36263 4.1796,-0.81071 6.2928,-1.08146 1.9224,-0.28925 3.8281,-0.63198 5.7264,-1.05251 1.5485,-0.17812 3.1082,-0.31223 4.6062,-0.77452 0.9645,-0.25259 1.9513,-0.48314 2.8506,-0.9242 0.6818,-0.25603 1.3952,-0.51702 2.1217,-0.58699 0.3104,-0.0786 0.861,-0.38154 0.6679,-0.27045 -14.4077,8.28057 -4.0453,2.36341 0.8089,-0.44153 0.1763,-0.0449 0.6576,-0.30012 0.5009,-0.20984 -2.3385,1.34586 -9.5264,5.022 -7.0112,4.04548 6.6858,-2.59565 4.8626,-3.89765 8.2573,-4.37079 0.1886,-0.0611 0.729,-0.3174 0.557,-0.21636 -2.323,1.36661 -9.4812,5.09095 -6.9841,4.07609 9.0843,-3.69187 4.5948,-4.40141 8.2065,-4.26222 0.468,0.0173 0.9714,0.0743 1.3976,-0.1557 -2.3543,1.37045 -9.1823,5.82341 -7.0632,4.11133 2.2342,-1.805 4.9355,-2.93879 7.4123,-4.39328 0.1238,-0.0728 0.5028,-0.20674 0.6306,-0.22296 0.086,-0.01 0.1741,0.0301 0.261,0.0452 0.7917,-0.0474 1.5831,-0.21985 2.3274,-0.48987 1.6739,-0.42157 3.4231,-0.55324 5.1301,-0.78097 2.774,-0.39191 5.5454,-0.79607 8.328,-1.12635 5.979,-0.81182 12.0197,-1.13321 18.0036,-1.91859 10.2409,-0.91128 20.4866,-1.74477 30.7355,-2.56339 11.0291,-0.92141 22.0525,-1.89269 33.0709,-2.93609 10.5662,-0.92136 21.1372,-1.78902 31.7028,-2.71471 10.2722,-0.79162 20.5513,-1.48517 30.8086,-2.45467 7.0389,-0.63868 14.0925,-1.31763 21.0333,-2.69118 5.0962,-1.05385 10.218,-2.03152 15.2286,-3.45103 5.0217,-1.25433 10.0331,-2.55059 15.0451,-3.84328 4.8581,-1.27271 9.7842,-2.2669 14.6543,-3.49058 1.9181,-0.50334 3.8973,-0.90485 5.7196,-1.69865 0.1325,-0.0415 0.5191,-0.19721 0.4002,-0.12442 -2.3052,1.40801 -9.0882,5.80954 -6.9677,4.13643 6.7578,-5.3327 4.717,-3.83162 8.1403,-4.62162 2.209,-1.46762 -9.1082,5.43663 -6.8702,4.0133 0,-0.002 19.5536,-11.39236 0.9847,-0.51316 2.8138,-1.04296 1.5641,-0.56978 7.5527,-4.46755 2.2847,-1.48723 -4.6686,2.81859 -7.0356,4.17161 -0.062,0.036 0.024,-0.16278 0.086,-0.19949 2.4739,-1.45303 4.8669,-3.07646 7.4858,-4.24812 2.4797,-1.10937 -4.7108,2.70694 -7.0661,4.06039 3.3149,-0.4497 5.7405,-3.73072 8.8276,-5.1212 3.5644,-1.91245 -9.247,5.37727 -6.0037,3.51244 2.5473,-1.46476 5.0163,-3.07361 7.6327,-4.41111 2.2292,-1.13957 -9.551,5.68656 -6.488,3.78409 0.7467,-0.7462 1.7214,-1.22949 2.4373,-2.01699 0,0 7.8884,-3.0433 7.8884,-3.0433 z"
       inkscape:connector-curvature="0" />
    <path
       style="color:#000000;clip-rule:nonzero;display:inline;overflow:visible;visibility:visible;opacity:0;isolation:auto;mix-blend-mode:normal;color-interpolation:sRGB;color-interpolation-filters:linearRGB;solid-color:#000000;solid-opacity:1;fill:#000000;fill-opacity:1;fill-rule:nonzero;stroke:#ffffff;stroke-width:0.05832;stroke-linecap:butt;stroke-linejoin:miter;stroke-miterlimit:4;stroke-dasharray:none;stroke-dashoffset:0;stroke-opacity:1;color-rendering:auto;image-rendering:auto;shape-rendering:auto;text-rendering:auto;enable-background:accumulate"
       id="path1119"
       d="m -1275.9672,-690.94472 c 0.301,-2.39454 1.0224,-4.6971 1.8124,-6.96804 1.4157,-3.59788 3.3156,-7.04797 5.7192,-10.08608 0.6348,-0.80232 1.331,-1.55413 1.9963,-2.33122 5.3165,-5.23405 11.924,-8.6842 18.5593,-11.99395 1.9802,-0.98789 5.696,-1.98861 7.7816,-2.60784 6.6018,-1.7924 13.3145,-2.68999 20.146,-2.34473 2.6582,0.32939 5.5602,0.54029 7.611,2.44446 1.1248,1.3347 1.619,3.06669 2.0285,4.73288 0.3737,1.70154 0.4289,3.44211 0.4891,5.17558 0.1032,0.97731 -0.034,1.9068 -0.277,2.84735 -0.066,0.58593 -0.33,1.10047 -0.5743,1.6267 -0.2667,0.44995 -0.2599,0.97237 -0.5475,1.42475 -0.3609,0.93297 -0.3082,1.97446 -0.3303,2.95951 -0.079,1.36861 0.2547,2.70099 0.5437,4.02659 0.2136,1.00408 0.7588,1.88464 1.0407,2.86472 0.2689,0.99984 0.8784,1.85204 1.3043,2.78329 0.4924,1.0906 1.0112,1.79866 1.8315,2.64147 0.2712,0.50336 0.7258,0.67222 1.1563,0.98418 0.4834,0.35029 0.8597,0.72892 1.3834,1.03051 1.1465,0.81623 2.5721,1.0392 3.8732,1.49729 1.887,0.39996 3.783,0.67888 5.6843,1.01068 2.0103,0.3562 4.0015,0.77152 6.0347,0.98253 1.53,0.0893 3.0793,0.26768 4.6045,0.066 1.2819,-0.18725 2.5269,-0.4828 3.7951,-0.74295 1.8202,-0.31916 3.5428,-0.98109 5.3096,-1.5025 2.7919,-0.90658 5.4354,-2.18885 8.1606,-3.26534 1.8866,-1.09033 3.9312,-1.83392 5.9306,-2.67417 2.1571,-0.90639 4.2628,-1.93607 6.4028,-2.8815 3.4589,-1.64513 6.952,-3.20776 10.4596,-4.74753 2.2182,-1.16772 4.5908,-2.00684 6.8137,-3.15932 1.7849,-0.74378 3.5371,-1.57116 5.2896,-2.39058 1.4661,-0.59243 2.9907,-1.02019 4.4736,-1.56545 2.1809,-0.74747 4.3743,-1.46322 6.5677,-2.17353 4.2174,-1.17534 8.4572,-2.26317 12.6965,-3.35844 6.3979,-1.432 12.8041,-2.82474 19.1585,-4.44072 5.7059,-1.42814 11.4563,-2.63541 17.224,-3.7847 4.6394,-0.84312 9.3051,-1.54353 13.9656,-2.2669 1.9922,-0.27628 3.986,-0.52088 5.9896,-0.69189 0,0 -6.678,4.93517 -6.678,4.93517 v 0 c -1.9389,0.14947 -3.8749,0.34344 -5.8,0.62311 -4.627,0.69925 -9.2648,1.34826 -13.8604,2.2305 -5.7186,1.10909 -11.414,2.30913 -17.0674,3.71721 -6.3951,1.59256 -12.8358,2.98752 -19.2459,4.51783 -4.3075,1.14449 -8.6223,2.27081 -12.8857,3.56904 -2.222,0.75085 -4.4562,1.46676 -6.6604,2.26917 -1.4868,0.51238 -2.9975,0.96936 -4.4291,1.62708 -1.7425,0.79433 -3.4837,1.59144 -5.2327,2.37137 -2.2405,1.04413 -4.5244,1.99339 -6.7525,3.06426 -3.4656,1.51906 -6.9197,3.06057 -10.3477,4.66273 -4.1457,1.84179 -8.3164,3.62625 -12.4085,5.58323 -2.7588,1.15309 -5.475,2.42674 -8.338,3.3114 -1.7903,0.57088 -3.5766,1.14612 -5.4276,1.49487 -1.2721,0.26736 -2.5431,0.55028 -3.8433,0.65095 -1.5593,0.0562 -3.1167,-0.0426 -4.6658,-0.22585 -2.0329,-0.26002 -4.0296,-0.71001 -6.0544,-1.02096 -1.9359,-0.31319 -3.8726,-0.62524 -5.7779,-1.09332 -1.3925,-0.40678 -2.8234,-0.78126 -4.0177,-1.64278 -0.9563,-0.62243 -1.917,-1.3109 -2.6655,-2.17471 -0.8467,-0.84817 -1.4594,-1.82549 -1.9818,-2.90122 -0.431,-0.9821 -1.092,-1.85779 -1.3971,-2.89803 -0.2183,-1.01234 -0.8327,-1.87923 -1.0142,-2.9066 -0.3175,-1.37793 -0.6445,-2.77957 -0.6223,-4.20195 0,-1.07124 -0.044,-2.15303 0.1224,-3.21466 0.1354,-0.52373 0.5766,-0.8543 0.4891,-1.47413 0.2603,-0.47329 0.5756,-0.94521 0.7024,-1.4581 0.1824,-0.90503 0.5682,-1.74215 0.4259,-2.69465 0,-1.68405 -0.044,-3.37689 -0.3553,-5.03669 -0.3561,-1.49701 -0.8108,-3.09212 -1.8243,-4.28021 -1.8693,-1.68769 -4.6249,-1.81884 -6.9906,-2.17835 -6.7394,-0.36582 -13.1973,0.54831 -19.7013,2.35406 -1.329,0.41595 -2.674,0.78409 -3.9869,1.24786 -1.2719,0.44919 -2.7826,2.41605 -3.7623,1.48911 -0.9103,-0.86115 3.1042,-0.84437 3.1194,-2.09725 0.02,-1.22205 -2.1068,1.24227 -3.1174,1.92967 -0.9633,0.65531 -1.8942,1.35921 -2.7981,2.09448 -0.8465,0.68862 -1.632,1.44896 -2.448,2.17344 -0.6606,0.75104 -1.3532,1.47517 -1.9818,2.25309 -2.3618,2.92199 -4.2027,6.28365 -5.5857,9.76593 -0.7623,2.1521 -1.4013,4.34448 -1.7103,6.60536 0,0 -7.5313,3.83746 -7.5313,3.83746 z"
       inkscape:connector-curvature="0" />
    <path
       style="color:#000000;clip-rule:nonzero;display:inline;overflow:visible;visibility:visible;opacity:0;isolation:auto;mix-blend-mode:normal;color-interpolation:sRGB;color-interpolation-filters:linearRGB;solid-color:#000000;solid-opacity:1;fill:#000000;fill-opacity:1;fill-rule:nonzero;stroke:#ffffff;stroke-width:0.05832;stroke-linecap:butt;stroke-linejoin:miter;stroke-miterlimit:4;stroke-dasharray:none;stroke-dashoffset:0;stroke-opacity:1;color-rendering:auto;image-rendering:auto;shape-rendering:auto;text-rendering:auto;enable-background:accumulate"
       id="path1121"
       d="m -1216.0175,-612.63039 c 2.6256,-1.21709 5.2071,-2.51238 7.9644,-3.41725 1.0787,-0.35384 2.1761,-0.64624 3.2643,-0.96937 8.8735,-2.2648 17.9719,-3.50433 27.0724,-4.40653 6.0761,-0.44508 12.173,-0.9271 18.271,-0.77451 2.3281,0.0582 4.9231,0.25776 7.2559,0.41647 3.0561,0.42212 6.1522,0.66525 9.1561,1.40571 0.7833,0.19304 1.5436,0.47111 2.322,0.68285 0.9027,0.38462 1.9938,0.7267 2.4873,1.62922 0.2574,0.45328 0.2031,0.98026 0.1908,1.48072 -0.02,0.40735 -0.023,0.81414 -0.031,1.22141 0,0.44784 -0.02,0.89671 0,1.34438 0,0.50178 0,1.0038 0,1.50534 -0.037,0.55793 0.2665,1.02085 0.4451,1.52493 0.1008,0.91743 0.3838,1.72027 0.8316,2.52266 0.6194,1.33124 1.248,2.66934 1.982,3.94176 0.5468,1.12078 1.4995,1.88462 2.4899,2.5965 0,0 -7.1344,4.49713 -7.1344,4.49713 v 0 c -1.0194,-0.84679 -2.034,-1.68151 -2.6267,-2.90556 -0.7076,-1.28191 -1.359,-2.60156 -1.9861,-3.92397 -0.5027,-0.82416 -0.9419,-1.68524 -0.9864,-2.66357 -0.1176,-0.5866 -0.6251,-1.10327 -0.5677,-1.74156 -0.02,-0.49901 -8e-4,-0.9985 0,-1.49779 0,-0.4502 0,-0.9014 -4e-4,-1.35189 4e-4,-0.41468 0,-0.82994 0.034,-1.24379 0.02,-0.36098 0.072,-0.74883 0.02,-1.09918 -0.2125,-0.5241 -1.5409,-0.8993 -1.9845,-1.14366 -3.5765,-1.1437 -7.2417,-1.84708 -10.9819,-2.2255 -2.631,-0.21174 -4.4232,-0.38686 -7.0966,-0.46691 -6.0427,-0.1808 -12.083,0.28689 -18.1025,0.75261 -9.1601,0.94903 -18.3302,2.20772 -27.2135,4.70655 -1.1098,0.36174 -2.2312,0.68992 -3.3295,1.08526 -2.8861,1.03878 -5.5458,2.56141 -8.3993,3.66314 0,0 6.6831,-5.1456 6.6831,-5.1456 z"
       inkscape:connector-curvature="0" />
    <path
       style="color:#000000;clip-rule:nonzero;display:inline;overflow:visible;visibility:visible;opacity:0;isolation:auto;mix-blend-mode:normal;color-interpolation:sRGB;color-interpolation-filters:linearRGB;solid-color:#000000;solid-opacity:1;fill:#800000;fill-opacity:1;fill-rule:nonzero;stroke:#ffffff;stroke-width:0.05832;stroke-linecap:butt;stroke-linejoin:miter;stroke-miterlimit:4;stroke-dasharray:none;stroke-dashoffset:0;stroke-opacity:1;color-rendering:auto;image-rendering:auto;shape-rendering:auto;text-rendering:auto;enable-background:accumulate"
       id="path1147"
       d="m -1360.7059,-750.50852 c 2.9663,-1.42468 10.0491,-5.5207 -2.1714,1.46016 4.007,-1.21633 7.2719,-4.42881 11.1116,-6.15394 3.3649,-1.51188 -1.3203,0.77916 1.9348,-0.84022 1.8427,-0.735 3.6422,-1.61722 5.5559,-2.14358 2.067,-0.86718 4.2861,-1.24023 6.4818,-1.6203 2.7993,-0.61457 5.6876,-0.48597 8.5338,-0.63527 3.2931,-0.27233 6.5994,-0.27838 9.8962,-0.47755 3.6689,-0.29636 7.3481,-0.41369 11.0277,-0.46592 4.4023,0.15984 8.7853,0.63369 13.1861,0.85689 4.8326,0.25889 9.646,0.67109 14.4582,1.17421 4.6297,0.41376 9.2472,0.9939 13.8313,1.76398 3.7746,0.54244 7.5463,1.0941 11.31,1.70876 2.4847,0.48029 5.0239,0.43913 7.5277,0.71846 1.8914,0.23877 3.7926,0.37166 5.6971,0.44344 1.7466,0.0527 3.4944,0.0511 5.2416,0.0448 1.2109,-0.002 2.4219,-0.007 3.6323,-0.0344 0.4358,-0.008 0.8716,-0.007 1.3078,-0.01 0.3865,0.001 0.7732,2.9e-4 1.1598,0.002 0.6918,10e-4 1.3832,0.0173 2.075,0.01 0.2498,-0.053 0.5164,0.0474 0.7669,-0.002 0.2707,-0.055 0.5635,-0.22608 0.7437,-0.42701 -2.3709,1.55244 -4.7414,3.10486 -7.1122,4.65731 -1.8498,-0.47496 -3.7324,-0.92576 -5.6123,-1.31246 -2.7777,-0.42338 -5.5549,-0.86306 -8.3487,-1.16913 -1.2742,-0.13896 -2.5542,-0.19824 -3.8348,-0.20363 0,0 6.8516,-4.9528 6.8516,-4.9528 v 0 c 1.2607,0.0553 2.5171,0.18724 3.7675,0.35482 2.7769,0.39142 5.55,0.81338 8.3166,1.26944 2.955,0.59738 0.089,0.01 2.8524,0.59719 1.1151,0.23675 2.3222,0.35807 3.2753,1.03503 -4.9955,3.71054 -4.5803,5.19993 -8.5048,5.12327 -0.7016,-0.002 -1.403,0.01 -2.1046,0.01 -0.3907,0.002 -0.7815,0.001 -1.172,0.002 -0.4261,-0.002 -0.8521,-10e-4 -1.2781,-0.008 -1.1836,-0.026 -2.3676,-0.0226 -3.5513,-0.0269 -1.7554,-0.01 -3.5114,-0.008 -5.2658,-0.0737 -1.9004,-0.10272 -3.7923,-0.30293 -5.6837,-0.5093 -2.4965,-0.22517 -5.0075,-0.3427 -7.4741,-0.82457 -3.7243,-0.6571 -7.4626,-1.22072 -11.2022,-1.78253 -4.562,-0.76227 -9.1563,-1.32116 -13.7609,-1.75201 -4.8087,-0.4991 -9.6245,-0.87414 -14.4528,-1.12717 -4.404,-0.23808 -8.7955,-0.70307 -13.206,-0.77044 -3.6874,0.0942 -7.3726,0.23759 -11.0508,0.52163 -3.3076,0.1862 -6.6222,0.23844 -9.9265,0.49319 -2.8517,0.14601 -5.7345,0.10176 -8.5317,0.76607 -2.1955,0.42178 -4.3755,0.90117 -6.4593,1.73322 -1.8561,0.66094 -3.6808,1.40804 -5.4737,2.22474 -3.0593,1.37847 -11.2735,5.86516 1.2132,-1.18854 -4.0381,2.34603 -8.0031,4.73193 -12.1722,6.81238 0,0 6.594,-5.2746 6.594,-5.2746 z"
       inkscape:connector-curvature="0" />
    <path
       style="color:#000000;clip-rule:nonzero;display:inline;overflow:visible;visibility:visible;opacity:0;isolation:auto;mix-blend-mode:normal;color-interpolation:sRGB;color-interpolation-filters:linearRGB;solid-color:#000000;solid-opacity:1;fill:#800000;fill-opacity:1;fill-rule:nonzero;stroke:#ffffff;stroke-width:0.05832;stroke-linecap:butt;stroke-linejoin:miter;stroke-miterlimit:4;stroke-dasharray:none;stroke-dashoffset:0;stroke-opacity:1;color-rendering:auto;image-rendering:auto;shape-rendering:auto;text-rendering:auto;enable-background:accumulate"
       id="path1149"
       d="m -1384.4056,-780.697 c 0.9867,1.61254 2.39,2.75935 3.9102,3.83797 1.8,1.44785 3.752,2.68829 5.6574,3.98773 1.7687,0.95076 3.3058,2.23875 4.9506,3.37397 1.0214,0.84745 2.0997,1.63761 3.049,2.56668 0.5123,0.52677 1.1444,0.92657 1.6381,1.46125 0.3067,0.45042 0.7704,0.74615 1.1129,1.16166 0.055,0.075 0.094,0.16589 0.1658,0.2255 0.044,0.0372 0.1128,0.0338 0.1677,0.0509 0.07,0.0432 0.1451,0.0744 0.2031,0.12945 0.1452,0.13565 0.2032,0.34848 0.3533,0.47727 0.031,0.0266 0.08,0.007 0.1224,0.008 0.1354,0.09 0.2698,0.17894 0.4055,0.26776 0,0 -7.1819,4.57409 -7.1819,4.57409 v 0 c -0.1238,-0.0935 -0.2489,-0.18623 -0.3756,-0.27617 -0.3777,-0.35217 -0.7505,-0.70834 -1.1184,-1.06878 -0.3679,-0.36722 -0.7704,-0.70372 -1.0817,-1.12461 -0.5406,-0.48061 -1.0819,-0.9598 -1.5937,-1.46946 -0.9251,-0.88485 -1.9195,-1.69611 -2.9139,-2.50071 -1.6062,-1.17253 -3.18,-2.39013 -4.9073,-3.38574 -1.9026,-1.3143 -3.8423,-2.57932 -5.6701,-3.99957 -1.5929,-1.15125 -3.0358,-2.41167 -4.172,-4.03266 0,0 7.2794,-4.2655 7.2794,-4.2655 z"
       inkscape:connector-curvature="0" />
    <text
       xml:space="preserve"
       style="font-style:normal;font-variant:normal;font-weight:normal;font-stretch:normal;font-size:124.41600037px;line-height:125%;font-family:Bariol;-inkscape-font-specification:'Bariol, Normal';font-variant-ligatures:normal;font-variant-caps:normal;font-variant-numeric:normal;font-feature-settings:normal;text-align:start;letter-spacing:0px;word-spacing:0px;writing-mode:lr-tb;text-anchor:start;fill:#000000;fill-opacity:1;stroke:none;stroke-width:1.94400001px;stroke-linecap:butt;stroke-linejoin:miter;stroke-opacity:1"
       x="-1258.5409"
       y="-613.33655"
       id="text4844"><tspan
         sodipodi:role="line"
         id="tspan4842"
         x="-1258.5409"
         y="-613.33655"
         style="font-size:124.41600037px;stroke-width:1.94400001px">daylo</tspan></text>
  </g>
</svg>
